# xmcd
#
# Track frame offsets: 
#        150
#        28241
#        48657
#        71423
#        93804
#        117919
#        139204
#        155727
#        177276
#
# Disc length: 2506 seconds
#
# Revision: 1
# Processed by: cddbd v1.5.2PL0 Copyright (c) Steve Scherf et al.
# Submitted via: ExactAudioCopy v1.3
#
DISCID=7c09c809
DTITLE=Rupam - Neel Rang Chhilo Bhishon Priyo
DYEAR=2007
DGENRE=Bengali Modern
TTITLE0=Sedino Chhilo
TTITLE1=Swapno Bhangar
TTITLE2=Chalo Aaj
TTITLE3=Dekkho Korben Na
TTITLE4=Tabu Dur Akasher
TTITLE5=Kamlo Megheder Ojon
TTITLE6=Halud Jama
TTITLE7=Tomar Chokher Kalo
TTITLE8=Bhanga Taroni
EXTD=
EXTT0=
EXTT1=
EXTT2=
EXTT3=
EXTT4=
EXTT5=
EXTT6=
EXTT7=
EXTT8=
PLAYORDER=
